<svg xmlns:xlink="http://www.w3.org/1999/xlink" version="1.1" style="font-family:'lucida grande', 'lucida sans unicode', arial, helvetica, sans-serif;font-size:12px;" xmlns="http://www.w3.org/2000/svg" width="900" height="400"><desc>Created with Highcharts 4.2.1</desc><defs><clipPath id="highcharts-13"><rect x="0" y="0" width="697" height="304"></rect></clipPath></defs><rect x="0" y="0" width="900" height="400" strokeWidth="0" fill="#FFFFFF" class=" highcharts-background"></rect><path fill="none" d="M 73 299.5 L 770 299.5" stroke="#808080" stroke-width="1"></path><g class="highcharts-grid" ></g><g class="highcharts-grid" ><path fill="none" d="M 73 375.5 L 770 375.5" stroke="#D8D8D8" stroke-width="1"  opacity="1"></path><path fill="none" d="M 73 299.5 L 770 299.5" stroke="#D8D8D8" stroke-width="1"  opacity="1"></path><path fill="none" d="M 73 223.5 L 770 223.5" stroke="#D8D8D8" stroke-width="1"  opacity="1"></path><path fill="none" d="M 73 147.5 L 770 147.5" stroke="#D8D8D8" stroke-width="1"  opacity="1"></path><path fill="none" d="M 73 70.5 L 770 70.5" stroke="#D8D8D8" stroke-width="1"  opacity="1"></path></g><g class="highcharts-axis" ><path fill="none" d="M 130.5 375 L 130.5 385" stroke="#C0D0E0" stroke-width="1" opacity="1"></path><path fill="none" d="M 188.5 375 L 188.5 385" stroke="#C0D0E0" stroke-width="1" opacity="1"></path><path fill="none" d="M 246.5 375 L 246.5 385" stroke="#C0D0E0" stroke-width="1" opacity="1"></path><path fill="none" d="M 304.5 375 L 304.5 385" stroke="#C0D0E0" stroke-width="1" opacity="1"></path><path fill="none" d="M 362.5 375 L 362.5 385" stroke="#C0D0E0" stroke-width="1" opacity="1"></path><path fill="none" d="M 421.5 375 L 421.5 385" stroke="#C0D0E0" stroke-width="1" opacity="1"></path><path fill="none" d="M 479.5 375 L 479.5 385" stroke="#C0D0E0" stroke-width="1" opacity="1"></path><path fill="none" d="M 537.5 375 L 537.5 385" stroke="#C0D0E0" stroke-width="1" opacity="1"></path><path fill="none" d="M 595.5 375 L 595.5 385" stroke="#C0D0E0" stroke-width="1" opacity="1"></path><path fill="none" d="M 653.5 375 L 653.5 385" stroke="#C0D0E0" stroke-width="1" opacity="1"></path><path fill="none" d="M 711.5 375 L 711.5 385" stroke="#C0D0E0" stroke-width="1" opacity="1"></path><path fill="none" d="M 770.5 375 L 770.5 385" stroke="#C0D0E0" stroke-width="1" opacity="1"></path><path fill="none" d="M 72.5 375 L 72.5 385" stroke="#C0D0E0" stroke-width="1" opacity="1"></path><path fill="none" d="M 73 375.5 L 770 375.5" stroke="#C0D0E0" stroke-width="1" ></path></g><g class="highcharts-axis" ><text x="27.734375"  text-anchor="middle" transform="translate(0,0) rotate(270 27.734375 223)" class=" highcharts-yaxis-title" style="color:#707070;fill:#707070;" y="223"><tspan>Temperature (°C)</tspan></text></g><g class="highcharts-series-group" ><g class="highcharts-series highcharts-series-0"  transform="translate(73,71) scale(1 1)" clip-path="url(#highcharts-13)"><path fill="none" d="M 29.041666666666668 174.8 L 87.125 175.56000000000003 L 145.20833333333334 155.8 L 203.29166666666666 117.80000000000001 L 261.375 89.68 L 319.45833333333337 64.60000000000002 L 377.5416666666667 36.48000000000002 L 435.62500000000006 26.600000000000023 L 493.70833333333337 50.920000000000044 L 551.7916666666666 88.92000000000002 L 609.875 122.36000000000001 L 667.9583333333334 155.04" stroke="#7cb5ec" stroke-width="2"  stroke-linejoin="round" stroke-linecap="round"></path></g><g class="highcharts-markers highcharts-series-0"  transform="translate(73,71) scale(1 1)" clip-path="none"><path fill="#7cb5ec" d="M 667 151.04 C 672.328 151.04 672.328 159.04 667 159.04 C 661.672 159.04 661.672 151.04 667 151.04 Z"></path><path fill="#7cb5ec" d="M 609 118.36000000000001 C 614.328 118.36000000000001 614.328 126.36000000000001 609 126.36000000000001 C 603.672 126.36000000000001 603.672 118.36000000000001 609 118.36000000000001 Z"></path><path fill="#7cb5ec" d="M 551 84.92000000000002 C 556.328 84.92000000000002 556.328 92.92000000000002 551 92.92000000000002 C 545.672 92.92000000000002 545.672 84.92000000000002 551 84.92000000000002 Z"></path><path fill="#7cb5ec" d="M 493 46.920000000000044 C 498.328 46.920000000000044 498.328 54.920000000000044 493 54.920000000000044 C 487.672 54.920000000000044 487.672 46.920000000000044 493 46.920000000000044 Z"></path><path fill="#7cb5ec" d="M 435 22.600000000000023 C 440.328 22.600000000000023 440.328 30.600000000000023 435 30.600000000000023 C 429.672 30.600000000000023 429.672 22.600000000000023 435 22.600000000000023 Z"></path><path fill="#7cb5ec" d="M 377 32.48000000000002 C 382.328 32.48000000000002 382.328 40.48000000000002 377 40.48000000000002 C 371.672 40.48000000000002 371.672 32.48000000000002 377 32.48000000000002 Z"></path><path fill="#7cb5ec" d="M 319 60.60000000000002 C 324.328 60.60000000000002 324.328 68.60000000000002 319 68.60000000000002 C 313.672 68.60000000000002 313.672 60.60000000000002 319 60.60000000000002 Z"></path><path fill="#7cb5ec" d="M 261 85.68 C 266.328 85.68 266.328 93.68 261 93.68 C 255.672 93.68 255.672 85.68 261 85.68 Z"></path><path fill="#7cb5ec" d="M 203 113.80000000000001 C 208.328 113.80000000000001 208.328 121.80000000000001 203 121.80000000000001 C 197.672 121.80000000000001 197.672 113.80000000000001 203 113.80000000000001 Z"></path><path fill="#7cb5ec" d="M 145 151.8 C 150.328 151.8 150.328 159.8 145 159.8 C 139.672 159.8 139.672 151.8 145 151.8 Z"></path><path fill="#7cb5ec" d="M 87 171.56000000000003 C 92.328 171.56000000000003 92.328 179.56000000000003 87 179.56000000000003 C 81.672 179.56000000000003 81.672 171.56000000000003 87 171.56000000000003 Z"></path><path fill="#7cb5ec" d="M 29 170.8 C 34.328 170.8 34.328 178.8 29 178.8 C 23.672 178.8 23.672 170.8 29 170.8 Z"></path></g><g class="highcharts-series highcharts-series-1"  transform="translate(73,71) scale(1 1)" clip-path="url(#highcharts-13)"><path fill="none" d="M 29.041666666666668 229.51999999999998 L 87.125 221.92000000000002 L 145.20833333333334 184.68 L 203.29166666666666 142.12 L 261.375 98.80000000000001 L 319.45833333333337 60.80000000000001 L 377.5416666666667 39.52000000000004 L 435.62500000000006 44.839999999999975 L 493.70833333333337 75.24000000000001 L 551.7916666666666 120.84 L 609.875 162.64 L 667.9583333333334 209" stroke="#434348" stroke-width="2"  stroke-linejoin="round" stroke-linecap="round"></path></g><g class="highcharts-markers highcharts-series-1"  transform="translate(73,71) scale(1 1)" clip-path="none"><path fill="#434348" d="M 667 205 L 671 209 667 213 663 209 Z"></path><path fill="#434348" d="M 609 158.64 L 613 162.64 609 166.64 605 162.64 Z"></path><path fill="#434348" d="M 551 116.84 L 555 120.84 551 124.84 547 120.84 Z"></path><path fill="#434348" d="M 493 71.24000000000001 L 497 75.24000000000001 493 79.24000000000001 489 75.24000000000001 Z"></path><path fill="#434348" d="M 435 40.839999999999975 L 439 44.839999999999975 435 48.839999999999975 431 44.839999999999975 Z"></path><path fill="#434348" d="M 377 35.52000000000004 L 381 39.52000000000004 377 43.52000000000004 373 39.52000000000004 Z"></path><path fill="#434348" d="M 319 56.80000000000001 L 323 60.80000000000001 319 64.80000000000001 315 60.80000000000001 Z"></path><path fill="#434348" d="M 261 94.80000000000001 L 265 98.80000000000001 261 102.80000000000001 257 98.80000000000001 Z"></path><path fill="#434348" d="M 203 138.12 L 207 142.12 203 146.12 199 142.12 Z"></path><path fill="#434348" d="M 145 180.68 L 149 184.68 145 188.68 141 184.68 Z"></path><path fill="#434348" d="M 87 217.92000000000002 L 91 221.92000000000002 87 225.92000000000002 83 221.92000000000002 Z"></path><path fill="#434348" d="M 29 225.51999999999998 L 33 229.51999999999998 29 233.51999999999998 25 229.51999999999998 Z"></path></g><g class="highcharts-series highcharts-series-2"  transform="translate(73,71) scale(1 1)" clip-path="url(#highcharts-13)"><path fill="none" d="M 29.041666666666668 234.84 L 87.125 223.44 L 145.20833333333334 201.4 L 203.29166666666666 164.16000000000003 L 261.375 125.4 L 319.45833333333337 98.80000000000001 L 377.5416666666667 86.63999999999999 L 435.62500000000006 91.96000000000001 L 493.70833333333337 119.32 L 551.7916666666666 159.6 L 609.875 198.36 L 667.9583333333334 220.4" stroke="#90ed7d" stroke-width="2"  stroke-linejoin="round" stroke-linecap="round"></path></g><g class="highcharts-markers highcharts-series-2"  transform="translate(73,71) scale(1 1)" clip-path="none"><path fill="#90ed7d" d="M 663 216.4 L 671 216.4 671 224.4 663 224.4 Z"></path><path fill="#90ed7d" d="M 605 194.36 L 613 194.36 613 202.36 605 202.36 Z"></path><path fill="#90ed7d" d="M 547 155.6 L 555 155.6 555 163.6 547 163.6 Z"></path><path fill="#90ed7d" d="M 489 115.32 L 497 115.32 497 123.32 489 123.32 Z"></path><path fill="#90ed7d" d="M 431 87.96000000000001 L 439 87.96000000000001 439 95.96000000000001 431 95.96000000000001 Z"></path><path fill="#90ed7d" d="M 373 82.63999999999999 L 381 82.63999999999999 381 90.63999999999999 373 90.63999999999999 Z"></path><path fill="#90ed7d" d="M 315 94.80000000000001 L 323 94.80000000000001 323 102.80000000000001 315 102.80000000000001 Z"></path><path fill="#90ed7d" d="M 257 121.4 L 265 121.4 265 129.4 257 129.4 Z"></path><path fill="#90ed7d" d="M 199 160.16000000000003 L 207 160.16000000000003 207 168.16000000000003 199 168.16000000000003 Z"></path><path fill="#90ed7d" d="M 141 197.4 L 149 197.4 149 205.4 141 205.4 Z"></path><path fill="#90ed7d" d="M 83 219.44 L 91 219.44 91 227.44 83 227.44 Z"></path><path fill="#90ed7d" d="M 25 230.84 L 33 230.84 33 238.84 25 238.84 Z"></path></g><g class="highcharts-series highcharts-series-3"  transform="translate(73,71) scale(1 1)" clip-path="url(#highcharts-13)"><path fill="none" d="M 29.041666666666668 198.36 L 87.125 196.08 L 145.20833333333334 184.68 L 203.29166666666666 163.4 L 261.375 137.56000000000003 L 319.45833333333337 112.48000000000002 L 377.5416666666667 98.80000000000001 L 435.62500000000006 101.84 L 493.70833333333337 120.08000000000001 L 551.7916666666666 149.72 L 609.875 177.83999999999997 L 667.9583333333334 191.51999999999998" stroke="#f7a35c" stroke-width="2"  stroke-linejoin="round" stroke-linecap="round"></path></g><g class="highcharts-markers highcharts-series-3"  transform="translate(73,71) scale(1 1)" clip-path="none"><path fill="#f7a35c" d="M 667 187.51999999999998 L 671 195.51999999999998 663 195.51999999999998 Z"></path><path fill="#f7a35c" d="M 609 173.83999999999997 L 613 181.83999999999997 605 181.83999999999997 Z"></path><path fill="#f7a35c" d="M 551 145.72 L 555 153.72 547 153.72 Z"></path><path fill="#f7a35c" d="M 493 116.08000000000001 L 497 124.08000000000001 489 124.08000000000001 Z"></path><path fill="#f7a35c" d="M 435 97.84 L 439 105.84 431 105.84 Z"></path><path fill="#f7a35c" d="M 377 94.80000000000001 L 381 102.80000000000001 373 102.80000000000001 Z"></path><path fill="#f7a35c" d="M 319 108.48000000000002 L 323 116.48000000000002 315 116.48000000000002 Z"></path><path fill="#f7a35c" d="M 261 133.56000000000003 L 265 141.56000000000003 257 141.56000000000003 Z"></path><path fill="#f7a35c" d="M 203 159.4 L 207 167.4 199 167.4 Z"></path><path fill="#f7a35c" d="M 145 180.68 L 149 188.68 141 188.68 Z"></path><path fill="#f7a35c" d="M 87 192.08 L 91 200.08 83 200.08 Z"></path><path fill="#f7a35c" d="M 29 194.36 L 33 202.36 25 202.36 Z"></path></g></g><text x="430" text-anchor="middle" class="highcharts-title"  style="color:#333333;font-size:18px;fill:#333333;width:836px;" y="24"><tspan>Monthly Average Temperature</tspan></text><text x="430" text-anchor="middle" class="highcharts-subtitle"  style="color:#555555;fill:#555555;width:836px;" y="52"><tspan>Source: WorldClimate.com</tspan></text><g class="highcharts-legend"  transform="translate(786,110)"><g ><g><g class="highcharts-legend-item"  transform="translate(8,3)"><path fill="none" d="M 0 11 L 16 11" stroke="#7cb5ec" stroke-width="2"></path><path fill="#7cb5ec" d="M 8 7 C 13.328 7 13.328 15 8 15 C 2.6719999999999997 15 2.6719999999999997 7 8 7 Z"></path><text x="21" style="color:#333333;font-size:12px;font-weight:bold;cursor:pointer;fill:#333333;" text-anchor="start"  y="15">Tokyo</text></g><g class="highcharts-legend-item"  transform="translate(8,21)"><path fill="none" d="M 0 11 L 16 11" stroke="#434348" stroke-width="2"></path><path fill="#434348" d="M 8 7 L 12 11 8 15 4 11 Z"></path><text x="21" y="15" style="color:#333333;font-size:12px;font-weight:bold;cursor:pointer;fill:#333333;" text-anchor="start" ><tspan>New York</tspan></text></g><g class="highcharts-legend-item"  transform="translate(8,39)"><path fill="none" d="M 0 11 L 16 11" stroke="#90ed7d" stroke-width="2"></path><path fill="#90ed7d" d="M 4 7 L 12 7 12 15 4 15 Z"></path><text x="21" y="15" style="color:#333333;font-size:12px;font-weight:bold;cursor:pointer;fill:#333333;" text-anchor="start" >Berlin</text></g><g class="highcharts-legend-item"  transform="translate(8,57)"><path fill="none" d="M 0 11 L 16 11" stroke="#f7a35c" stroke-width="2"></path><path fill="#f7a35c" d="M 8 7 L 12 15 4 15 Z"></path><text x="21" y="15" style="color:#333333;font-size:12px;font-weight:bold;cursor:pointer;fill:#333333;" text-anchor="start" >London</text></g></g></g></g><g class="highcharts-axis-labels highcharts-xaxis-labels" ><text x="102.04166666666667" style="color:#606060;cursor:default;font-size:11px;fill:#606060;" text-anchor="middle" transform="translate(0,0)" y="394" opacity="1">Jan</text><text x="160.12500000000003" style="color:#606060;cursor:default;font-size:11px;fill:#606060;" text-anchor="middle" transform="translate(0,0)" y="394" opacity="1">Feb</text><text x="218.20833333333334" style="color:#606060;cursor:default;font-size:11px;fill:#606060;" text-anchor="middle" transform="translate(0,0)" y="394" opacity="1">Mar</text><text x="276.2916666666667" style="color:#606060;cursor:default;font-size:11px;fill:#606060;" text-anchor="middle" transform="translate(0,0)" y="394" opacity="1">Apr</text><text x="334.375" style="color:#606060;cursor:default;font-size:11px;fill:#606060;" text-anchor="middle" transform="translate(0,0)" y="394" opacity="1">May</text><text x="392.45833333333337" style="color:#606060;cursor:default;font-size:11px;fill:#606060;" text-anchor="middle" transform="translate(0,0)" y="394" opacity="1">Jun</text><text x="450.5416666666667" style="color:#606060;cursor:default;font-size:11px;fill:#606060;" text-anchor="middle" transform="translate(0,0)" y="394" opacity="1">Jul</text><text x="508.62500000000006" style="color:#606060;cursor:default;font-size:11px;fill:#606060;" text-anchor="middle" transform="translate(0,0)" y="394" opacity="1">Aug</text><text x="566.7083333333334" style="color:#606060;cursor:default;font-size:11px;fill:#606060;" text-anchor="middle" transform="translate(0,0)" y="394" opacity="1">Sep</text><text x="624.7916666666667" style="color:#606060;cursor:default;font-size:11px;fill:#606060;" text-anchor="middle" transform="translate(0,0)" y="394" opacity="1">Oct</text><text x="682.875" style="color:#606060;cursor:default;font-size:11px;fill:#606060;" text-anchor="middle" transform="translate(0,0)" y="394" opacity="1">Nov</text><text x="740.9583333333334" style="color:#606060;cursor:default;font-size:11px;fill:#606060;" text-anchor="middle" transform="translate(0,0)" y="394" opacity="1">Dec</text></g><g class="highcharts-axis-labels highcharts-yaxis-labels" ><text x="58" style="color:#606060;cursor:default;font-size:11px;fill:#606060;width:287px;text-overflow:clip;" text-anchor="end" transform="translate(0,0)" y="378" opacity="1">-10</text><text x="58" style="color:#606060;cursor:default;font-size:11px;fill:#606060;width:287px;text-overflow:clip;" text-anchor="end" transform="translate(0,0)" y="302" opacity="1">0</text><text x="58" style="color:#606060;cursor:default;font-size:11px;fill:#606060;width:287px;text-overflow:clip;" text-anchor="end" transform="translate(0,0)" y="226" opacity="1">10</text><text x="58" style="color:#606060;cursor:default;font-size:11px;fill:#606060;width:287px;text-overflow:clip;" text-anchor="end" transform="translate(0,0)" y="150" opacity="1">20</text><text x="58" style="color:#606060;cursor:default;font-size:11px;fill:#606060;width:287px;text-overflow:clip;" text-anchor="end" transform="translate(0,0)" y="74" opacity="1">30</text></g><g class="highcharts-tooltip"  style="cursor:default;padding:0;pointer-events:none;white-space:nowrap;" transform="translate(0,-9999)"><path fill="none" d="M 3.5 0.5 L 13.5 0.5 C 16.5 0.5 16.5 0.5 16.5 3.5 L 16.5 13.5 C 16.5 16.5 16.5 16.5 13.5 16.5 L 3.5 16.5 C 0.5 16.5 0.5 16.5 0.5 13.5 L 0.5 3.5 C 0.5 0.5 0.5 0.5 3.5 0.5"  stroke="black" stroke-opacity="0.049999999999999996" stroke-width="5" transform="translate(1, 1)"></path><path fill="none" d="M 3.5 0.5 L 13.5 0.5 C 16.5 0.5 16.5 0.5 16.5 3.5 L 16.5 13.5 C 16.5 16.5 16.5 16.5 13.5 16.5 L 3.5 16.5 C 0.5 16.5 0.5 16.5 0.5 13.5 L 0.5 3.5 C 0.5 0.5 0.5 0.5 3.5 0.5"  stroke="black" stroke-opacity="0.09999999999999999" stroke-width="3" transform="translate(1, 1)"></path><path fill="none" d="M 3.5 0.5 L 13.5 0.5 C 16.5 0.5 16.5 0.5 16.5 3.5 L 16.5 13.5 C 16.5 16.5 16.5 16.5 13.5 16.5 L 3.5 16.5 C 0.5 16.5 0.5 16.5 0.5 13.5 L 0.5 3.5 C 0.5 0.5 0.5 0.5 3.5 0.5"  stroke="black" stroke-opacity="0.15" stroke-width="1" transform="translate(1, 1)"></path><path fill="rgb(249, 249, 249)" fill-opacity=" .85" d="M 3.5 0.5 L 13.5 0.5 C 16.5 0.5 16.5 0.5 16.5 3.5 L 16.5 13.5 C 16.5 16.5 16.5 16.5 13.5 16.5 L 3.5 16.5 C 0.5 16.5 0.5 16.5 0.5 13.5 L 0.5 3.5 C 0.5 0.5 0.5 0.5 3.5 0.5"></path><text x="8"  style="font-size:12px;color:#333333;fill:#333333;" y="20"></text></g><text x="890" text-anchor="end"  style="cursor:pointer;color:#909090;font-size:9px;fill:#909090;" y="395">Highcharts.com</text></svg>